{"title":"Encounters At The End Of The World (2007) BDRip Multilanguage","uid":14713813,"size":4697478677,"categoryP":"video","categoryS":"hd___movies","magnet":"?xt=urn:btih:5410bbf3db28a769d6532f40adcdfeeb8d40d7d8&amp;dn=Encounters+At+The+End+Of+The+World+%282007%29+BDRip+Multilanguage&amp;tr=udp%3A%2F%2Ftracker.leechers-paradise.org%3A6969&amp;tr=udp%3A%2F%2Fzer0day.ch%3A1337&amp;tr=udp%3A%2F%2Fopen.demonii.com%3A1337&amp;tr=udp%3A%2F%2Ftracker.coppersurfer.tk%3A6969&amp;tr=udp%3A%2F%2Fexodus.desync.com%3A6969","seeders":15,"leechers":3,"uploader":null,"files":1,"time":1464442912,"description":"Audio: English\r\nLegendas/subtitles: Português, English, French, Polish, Spanish (MKV Track)\r\n\r\nThere a second audio track named Commentary, in English, with Herzog itself commenting the scenes. No subtitles for this track.\r\n\r\n=============================================\r\nFilm-maker Werner Herzog travels to the McMurdo Station in Antarctica, looking to capture the continent's beauty and investigate the characters living there.\r\n\r\n=============================================\r\n\r\nVideo\r\nID                             : 1\r\nFormat                         : AVC\r\nFormat/Info                    : Advanced Video Codec\r\nFormat profile                 :   \r\nFormat settings, CABAC         : Yes\r\nFormat settings, ReFrames      : 9 frames\r\nCodec ID                       : V_MPEG4/ISO/AVC\r\nDuration                       : 1h 40mn\r\nBit rate                       : 4 636 Kbps\r\nWidth                          : 1 276 pixels\r\nHeight                         : 720 pixels\r\nDisplay aspect ratio           : 16:9\r\nFrame rate mode                : Constant\r\nFrame rate                     : 23.976 fps\r\nColor space                    : YUV\r\nChroma subsampling             : 4:2:0\r\nBit depth                      : 8 bits\r\nScan type                      : Progressive\r\nBits/(Pixel*Frame)             : 0.210\r\nStream size                    : 3.17 GiB (72%)\r\n\r\n\r\nAudio #1\r\nID                             : 2\r\nFormat                         : DTS\r\nFormat/Info                    : Digital Theater Systems\r\nMode                           : 16\r\nFormat settings, Endianness    : Big\r\nCodec ID                       : A_DTS\r\nDuration                       : 1h 40mn\r\nBit rate mode                  : Constant\r\nBit rate                       : 1 510 Kbps\r\nChannel(s)                     : 6 channels\r\nChannel positions              : Front: L C R, Side: L R, LFE\r\nSampling rate                  : 48.0 KHz\r\nBit depth                      : 24 bits\r\nCompression mode               : Lossy\r\nStream size                    : 1.06 GiB (24%)\r\nLanguage                       : English\r\nDefault                        : Yes\r\nForced                         : No\r\n\r\nAudio #2\r\nID                             : 3\r\nFormat                         : Vorbis\r\nFormat settings, Floor         : 1\r\nCodec ID                       : A_VORBIS\r\nDuration                       : 1h 40mn\r\nBit rate mode                  : Variable\r\nBit rate                       : 80.0 Kbps\r\nChannel(s)                     : 2 channels\r\nSampling rate                  : 48.0 KHz\r\nCompression mode               : Lossy\r\nStream size                    : 57.6 MiB (1%)\r\nTitle                          : Commentary\r\nWriting library                : libVorbis 1.0 (UTC 2002-07-17)\r\nLanguage                       : English\r\nDefault                        : No\r\nForced                         : No\r\nWriting application            : Made with BeSweet v1.5b31\r\nEncoded_Application/Url        : http://DSPguru.doom9.org\r\n\r\nText #1\r\nID                             : 4\r\nFormat                         : UTF-8\r\nCodec ID                       : S_TEXT/UTF8\r\nCodec ID/Info                  : UTF-8 Plain Text\r\nLanguage                       : Portuguese\r\nDefault                        : Yes\r\nForced                         : No\r\n\r\nText #2\r\nID                             : 5\r\nFormat                         : ASS\r\nCodec ID                       : S_TEXT/ASS\r\nCodec ID/Info                  : Advanced Sub Station Alpha\r\nCompression mode               : Lossless\r\nLanguage                       : English\r\nDefault                        : No\r\nForced                         : No\r\n\r\nText #3\r\nID                             : 6\r\nFormat                         : ASS\r\nCodec ID                       : S_TEXT/ASS\r\nCodec ID/Info                  : Advanced Sub Station Alpha\r\nCompression mode               : Lossless\r\nLanguage                       : French\r\nDefault                        : No\r\nForced                         : No\r\n\r\nText #4\r\nID                             : 7\r\nFormat                         : ASS\r\nCodec ID                       : S_TEXT/ASS\r\nCodec ID/Info                  : Advanced Sub Station Alpha\r\nCompression mode               : Lossless\r\nLanguage                       : Polish\r\nDefault                        : No\r\nForced                         : No\r\n\r\nText #5\r\nID                             : 8\r\nFormat                         : ASS\r\nCodec ID                       : S_TEXT/ASS\r\nCodec ID/Info                  : Advanced Sub Station Alpha\r\nCompression mode               : Lossless\r\nLanguage                       : Spanish\r\nDefault                        : No\r\nForced                         : No","torrent":{"xt":"urn:btih:5410bbf3db28a769d6532f40adcdfeeb8d40d7d8","amp;dn":"Encounters+At+The+End+Of+The+World+%282007%29+BDRip+Multilanguage","amp;tr":["udp%3A%2F%2Ftracker.leechers-paradise.org%3A6969","udp%3A%2F%2Fzer0day.ch%3A1337","udp%3A%2F%2Fopen.demonii.com%3A1337","udp%3A%2F%2Ftracker.coppersurfer.tk%3A6969","udp%3A%2F%2Fexodus.desync.com%3A6969"],"infoHash":"5410bbf3db28a769d6532f40adcdfeeb8d40d7d8","infoHashBuffer":{"type":"Buffer","data":[84,16,187,243,219,40,167,105,214,83,47,64,173,205,254,235,141,64,215,216]},"announce":[],"urlList":[]}}